<?xml version="1.0" encoding="utf-8" ?><svg xmlns="http://www.w3.org/2000/svg" xmlns:xlink="http://www.w3.org/1999/xlink" width="14" height="14"><circle fill="none" stroke="currentColor" stroke-width="1.3" transform="matrix(1 0 0 1 1.5 1.5)" cx="5.5" cy="5.5" r="5.5"/><path fill="currentColor" transform="matrix(1 0 0 1 4.5 4.5)" d="M3.4193 2.5L5.4596 0.4596Q5.6578 0.2725 5.65 0Q5.6578 -0.2725 5.4596 -0.4596Q5.2725 -0.6578 5 -0.65Q4.7275 -0.6578 4.5404 -0.4596L2.5 1.5807L0.4596 -0.4596Q0.2725 -0.6578 0 -0.65Q-0.2725 -0.6578 -0.4596 -0.4596Q-0.6578 -0.2725 -0.65 0Q-0.6578 0.2725 -0.4596 0.4596L1.5807 2.5L-0.4596 4.5404Q-0.6578 4.7275 -0.65 5Q-0.6578 5.2725 -0.4596 5.4596Q-0.2725 5.6578 0 5.65Q0.2725 5.6578 0.4596 5.4596L2.5 3.4193L4.5404 5.4596Q4.7275 5.6578 5 5.65Q5.2725 5.6578 5.4596 5.4596Q5.6578 5.2725 5.65 5Q5.6578 4.7275 5.4596 4.5404L3.4193 2.5Z" fill-rule="evenodd"/></svg>