<?xml version="1.0" encoding="utf-8" ?><svg xmlns="http://www.w3.org/2000/svg" xmlns:xlink="http://www.w3.org/1999/xlink" width="36" height="36"><path fill="currentColor" transform="matrix(1 0 0 1 13 13)" d="M5 -0.65Q4.8195 -0.6517 4.6656 -0.5574L-0.3344 2.4426Q-0.4823 2.5297 -0.5656 2.6797Q-0.6514 2.8284 -0.65 3L-0.65 8Q-0.6514 8.1716 -0.5656 8.3203Q-0.4823 8.4703 -0.3344 8.5574L4.6656 11.5574Q4.8195 11.6517 5 11.65Q5.1805 11.6517 5.3344 11.5574L10.3344 8.5574Q10.4823 8.4703 10.5656 8.3203Q10.6514 8.1716 10.65 8L10.65 3Q10.6514 2.8284 10.5656 2.6797Q10.4823 2.5297 10.3344 2.4426L5.3344 -0.5574Q5.1805 -0.6517 5 -0.65ZM5 0.758L0.65 3.368L0.65 7.632L5 10.242L9.35 7.632L9.35 3.368L5 0.758Z" fill-rule="evenodd"/><path fill="currentColor" transform="matrix(1 0 0 1 13 16)" d="M5.65 3.368L10.3344 0.5574L9.6656 -0.5574L5 2.242L0.3344 -0.5574L-0.3344 0.5574L4.35 3.368L4.35 8L5.65 8L5.65 3.368Z" fill-rule="evenodd"/><path fill="currentColor" d="M18 36Q25.4558 36 30.7279 30.7279Q36 25.4558 36 18Q36 10.5442 30.7279 5.2721Q25.4558 0 18 0Q10.5442 0 5.2721 5.2721Q0 10.5442 0 18Q0 25.4558 5.2721 30.7279Q10.5442 36 18 36ZM29.6673 6.3327Q34.5 11.1655 34.5 18Q34.5 24.8345 29.6673 29.6673Q24.8345 34.5 18 34.5Q11.1655 34.5 6.3327 29.6673Q1.5 24.8345 1.5 18Q1.5 11.1655 6.3327 6.3327Q11.1655 1.5 18 1.5Q24.8345 1.5 29.6673 6.3327Z" fill-rule="evenodd"/></svg>